<?xml version="1.0" standalone="no"?>
<!DOCTYPE svg PUBLIC "-//W3C//DTD SVG 20010904//EN"
 "http://www.w3.org/TR/2001/REC-SVG-20010904/DTD/svg10.dtd">
<svg version="1.0" xmlns="http://www.w3.org/2000/svg"
 width="300.000000pt" height="130.000000pt" viewBox="0 0 300.000000 130.000000"
 preserveAspectRatio="xMidYMid meet">
<metadata>
Created by potrace 1.10, written by Peter Selinger 2001-2011
</metadata>
<g transform="translate(0.000000,130.000000) scale(0.100000,-0.100000)"
fill="#000000" stroke="none">
<path d="M1495 1075 c-155 -24 -310 -78 -413 -143 -46 -29 -50 -30 -222 -35
-191 -7 -287 -24 -425 -75 -44 -17 -116 -43 -160 -59 l-80 -29 3 -64 c2 -69
-8 -90 -43 -90 -32 0 -47 -23 -43 -67 l4 -38 12 30 c8 21 27 37 55 50 43 21
45 24 63 121 3 16 19 27 61 42 71 26 308 96 394 117 75 18 299 31 299 17 0 -5
-18 -17 -39 -27 -21 -9 -65 -35 -97 -56 -54 -36 -65 -39 -126 -39 -77 0 -88
13 -25 32 23 6 44 14 47 18 6 6 19 9 70 20 19 3 50 14 68 24 127 66 -198 -12
-408 -98 l-85 -35 206 -1 206 0 69 45 c124 82 282 132 442 142 56 3 102 10
102 16 0 6 -27 8 -70 5 -74 -6 -88 0 -42 19 15 6 74 32 132 57 121 52 188 71
303 86 45 5 98 13 117 15 29 5 23 0 -35 -29 -49 -24 -92 -57 -145 -110 -41
-42 -76 -80 -78 -86 -5 -13 567 -14 587 -1 14 9 33 116 22 126 -2 3 -12 -13
-22 -34 -29 -66 -49 -71 -284 -71 -113 0 -205 4 -205 8 0 4 38 44 84 89 61 58
99 87 138 101 l53 21 -205 -1 c-115 0 -240 -6 -285 -13z m-90 -65 c3 -5 -11
-16 -32 -25 -21 -9 -55 -28 -75 -42 -45 -30 -211 -71 -183 -44 23 22 97 56
185 87 52 18 96 33 97 33 1 1 5 -3 8 -9z"/>
<path d="M2070 1065 c131 -29 288 -99 467 -208 73 -45 100 -55 153 -61 36 -4
79 -10 95 -13 65 -12 7 15 -65 30 -58 12 -113 37 -248 110 -186 102 -304 146
-405 153 l-62 4 65 -15z"/>
<path d="M2262 863 c6 -21 11 -78 12 -128 0 -99 -19 -155 -84 -250 -41 -59
-23 -58 30 3 59 66 99 150 107 222 5 54 3 66 -26 125 -36 72 -55 86 -39 28z"/>
<path d="M2820 675 c0 -103 -16 -175 -38 -175 -5 0 -15 28 -22 62 -17 87 -38
134 -72 163 -25 21 -40 25 -96 25 -118 -1 -189 -52 -295 -213 -41 -63 -71 -96
-105 -118 -87 -55 -125 -62 -387 -66 l-240 -5 -1 94 c-3 140 -42 226 -124 268
-52 27 -70 25 -34 -2 74 -58 95 -109 95 -242 0 -58 -3 -121 -7 -141 l-6 -36
278 6 c154 4 304 8 334 10 30 2 94 4 141 4 l86 1 20 75 c20 74 20 75 0 58 -10
-10 -28 -35 -38 -56 l-20 -38 -64 2 -64 2 42 28 c49 32 81 66 122 129 46 70
86 118 103 125 9 3 13 3 9 -1 -3 -4 6 -22 22 -40 16 -18 33 -39 38 -47 4 -8
23 -22 40 -31 54 -27 57 -93 5 -141 l-27 -25 25 0 c60 0 102 70 80 135 -13 41
-53 75 -86 75 -32 0 -30 10 10 40 19 14 32 28 29 33 -5 8 -42 1 -86 -15 -44
-17 -43 -2 4 31 79 58 149 35 195 -63 30 -63 30 -107 3 -164 -25 -51 -65 -79
-127 -88 -43 -6 -49 -13 -16 -18 32 -5 28 -26 -5 -26 -80 0 -128 42 -146 128
-9 45 -25 30 -25 -24 0 -89 41 -128 151 -143 105 -14 169 11 205 82 9 16 23
27 35 27 34 0 75 51 88 108 23 108 8 312 -23 312 -4 0 -6 -47 -6 -105z m-44
-206 c4 -8 9 -7 15 2 6 10 9 6 9 -14 0 -20 -8 -32 -32 -47 -38 -23 -44 -15
-28 35 12 36 23 44 36 24z"/>
<path d="M1195 731 c-108 -27 -218 -152 -255 -291 -19 -72 -47 -119 -76 -126
-14 -4 -51 1 -82 10 -76 22 -372 29 -372 8 0 -38 54 -82 100 -82 11 0 20 -5
20 -11 0 -18 -67 -3 -104 22 -18 12 -42 37 -55 56 l-22 34 -86 -2 -86 -2 -11
33 c-17 51 -31 46 -31 -10 l0 -50 45 0 c25 0 68 -3 95 -6 44 -6 53 -11 78 -46
34 -48 79 -68 149 -68 68 0 117 14 159 45 65 47 77 50 107 29 21 -15 39 -19
85 -16 39 3 57 8 57 17 0 8 10 15 23 17 15 2 23 11 25 28 16 168 108 334 207
376 41 17 96 20 155 10 59 -10 42 7 -22 23 -52 12 -59 12 -103 2z m-551 -444
c-5 -15 -60 -37 -90 -37 -10 0 -32 11 -49 25 l-30 24 87 1 c68 0 86 -3 82 -13z"/>
<path d="M1234 634 c-5 -1 -26 -5 -47 -9 -52 -8 -111 -64 -132 -123 -9 -26
-19 -88 -22 -138 l-6 -90 32 -37 c45 -51 107 -72 212 -72 76 0 90 3 126 27 63
42 78 83 78 218 0 117 -9 190 -24 190 -4 0 -6 -22 -3 -48 10 -108 -39 -226
-108 -259 -19 -9 -60 -17 -91 -17 -41 -1 -55 -4 -52 -13 3 -7 9 -11 13 -8 5 3
12 1 15 -5 16 -26 134 0 178 38 25 22 32 8 11 -23 -29 -44 -70 -59 -157 -58
-87 2 -138 21 -170 65 -38 52 -11 228 42 276 40 36 66 38 113 6 52 -36 68 -61
70 -110 2 -58 -24 -100 -77 -123 -25 -11 -45 -22 -45 -25 0 -3 19 -6 41 -6 57
0 114 56 124 121 11 76 -41 169 -96 169 -25 0 -24 17 1 32 33 21 19 33 -26 22z"/>
<path d="M840 598 c-52 -5 -201 -7 -331 -6 -227 3 -259 0 -259 -27 0 -3 105
-5 234 -5 226 0 447 19 486 41 18 10 4 10 -130 -3z"/>
</g>
</svg>
