<svg xmlns="http://www.w3.org/2000/svg" width="432" height="150" viewBox="0 0 432 150" version="1.1"><path d="M 129.500 47.175 L 126.500 50.236 129.750 48.402 C 131.537 47.394, 133 45.991, 133 45.284 C 133 43.606, 132.996 43.608, 129.500 47.175 M 340.500 48.648 C 338.300 48.891, 329.750 50.172, 321.500 51.495 C 313.250 52.818, 304.711 54.161, 302.525 54.480 C 300.339 54.800, 295.614 55.750, 292.025 56.592 C 288.436 57.434, 284.234 58.291, 282.687 58.497 C 277.707 59.158, 240.181 68.542, 226.500 72.547 C 222.100 73.835, 217.270 75.108, 215.766 75.375 C 212.437 75.968, 211 76.795, 211 78.118 C 211 78.668, 211.338 78.911, 211.750 78.658 C 212.162 78.405, 214.300 77.918, 216.500 77.576 C 218.700 77.233, 225 76.090, 230.500 75.035 C 236 73.980, 243.200 72.850, 246.500 72.523 C 249.800 72.196, 254.750 71.513, 257.500 71.006 C 264.096 69.788, 282.202 67.216, 288.500 66.601 C 291.250 66.332, 299.575 65.400, 307 64.529 C 327.085 62.172, 345.007 61.320, 369 61.582 C 388.239 61.793, 391.529 62.082, 400.286 64.332 C 405.669 65.714, 411.688 67.799, 413.663 68.963 C 415.637 70.128, 417.430 70.903, 417.648 70.686 C 417.865 70.468, 416.571 68.088, 414.771 65.395 C 410.592 59.141, 404.496 55.097, 393.919 51.564 C 385.939 48.898, 384.432 48.738, 365 48.479 C 353.725 48.329, 342.700 48.405, 340.500 48.648 M 151 76 C 150.175 76.533, 148.488 76.976, 147.250 76.985 C 144.468 77.004, 144.382 78.382, 147 81 C 148.856 82.856, 149 84.333, 149 101.500 C 149 117.278, 148.779 120, 147.500 120 C 145.726 120, 145.653 120.482, 147.035 123.066 C 147.865 124.616, 149.156 125, 153.535 125 C 159.350 125, 159.784 124.620, 157.468 121.559 C 155.430 118.865, 155.620 113.654, 157.829 111.655 C 158.835 110.745, 159.921 110, 160.243 110 C 160.565 110, 162.213 112.250, 163.905 115 C 166.195 118.722, 166.600 120, 165.491 120 C 163.726 120, 163.654 120.485, 165.035 123.066 C 165.865 124.616, 167.156 125, 171.535 125 C 174.541 125, 177 124.597, 177 124.105 C 177 123.613, 175.873 122.150, 174.495 120.855 C 173.117 119.560, 170.151 115.706, 167.904 112.291 L 163.818 106.082 167.159 102.059 C 168.997 99.846, 170.950 98.021, 171.500 98.003 C 172.050 97.984, 173.104 97.587, 173.842 97.119 C 174.962 96.409, 174.963 95.914, 173.852 94.134 C 172.765 92.395, 171.546 92, 167.259 92 C 161.670 92, 161.468 92.137, 162.952 94.910 C 163.709 96.324, 163.094 97.479, 159.952 100.547 L 156 104.406 155.968 91.453 C 155.946 82.270, 155.550 77.991, 154.608 76.750 C 153.072 74.727, 152.995 74.711, 151 76 M 12.459 77.067 C 12.096 77.653, 12.070 78.403, 12.400 78.733 C 12.730 79.063, 13 78.782, 13 78.108 C 13 77.434, 13.450 77.160, 14 77.500 C 14.550 77.840, 15 77.641, 15 77.059 C 15 75.686, 13.309 75.691, 12.459 77.067 M 38 77.777 C 38 78.205, 38.629 79.453, 39.398 80.551 C 40.167 81.649, 42.028 90.862, 43.533 101.024 C 46.133 118.577, 47.867 125, 50.007 125 C 51.121 125, 51.469 123.720, 53.813 111 L 55.564 101.500 56.915 111.500 C 57.658 117, 58.672 122.287, 59.168 123.250 C 60.052 124.964, 63 125.732, 63 124.248 C 63 123.834, 64.569 114.497, 66.486 103.498 C 68.922 89.524, 70.448 83.151, 71.552 82.342 C 72.888 81.362, 72.930 80.861, 71.825 79.092 C 70.832 77.501, 69.498 77, 66.259 77 C 61.486 77, 61.393 77.131, 63.520 80.846 C 64.890 83.240, 64.862 84.431, 63.234 93 L 61.429 102.500 60.127 92.613 C 59.129 85.041, 59.100 82.556, 60.004 81.997 C 60.898 81.445, 60.861 80.750, 59.852 79.134 C 58.830 77.498, 57.525 77, 54.259 77 C 49.654 77, 49.207 77.570, 51.468 80.559 C 53.229 82.887, 53.371 87.056, 51.934 94.201 C 50.192 102.857, 49.746 102.895, 48.417 94.500 C 46.703 83.674, 46.714 82, 48.500 82 C 50.329 82, 50.360 81.058, 48.608 78.750 C 47.679 77.526, 45.886 77, 42.640 77 C 40.088 77, 38 77.350, 38 77.777 M 100.615 94.088 C 96.655 97.203, 94.998 101.231, 95.016 107.700 C 95.046 118.250, 101.379 125.333, 110.781 125.333 C 114.711 125.333, 115.747 124.853, 118.653 121.681 C 122.430 117.560, 122.508 117.255, 120.460 114.548 C 119.029 112.655, 118.896 112.700, 116.120 116.025 C 113.710 118.912, 112.606 119.455, 109.142 119.455 C 104.404 119.455, 102.512 117.887, 101.652 113.250 L 101.050 110 111.962 110 L 122.874 110 122.308 106.250 C 121.624 101.725, 118.774 96.754, 115.294 94.016 C 111.750 91.229, 104.203 91.266, 100.615 94.088 M 106.364 98.170 C 104.592 99.028, 102 102.816, 102 104.547 C 102 104.796, 104.925 105, 108.500 105 L 115 105 115 102.035 C 115 97.651, 111.069 95.891, 106.364 98.170" stroke="none" fill="#454545" fill-rule="evenodd"/><path d="M 289.500 18.668 C 288.400 18.908, 284.350 20.071, 280.500 21.254 C 273.943 23.268, 271.761 23.386, 246 23.119 C 206.258 22.706, 177.558 25.890, 155.500 33.158 C 148.090 35.599, 135.491 41.703, 133.897 43.624 C 131.588 46.407, 134.066 46.266, 140.737 43.236 C 157.163 35.776, 175.784 31.897, 202 30.474 C 214.024 29.821, 249.141 31.408, 254.523 32.848 L 257.079 33.531 253.789 36.701 C 246.510 43.715, 232.029 50.327, 218 53.041 C 200.649 56.397, 189.754 57.117, 143 57.995 C 92.275 58.948, 79.974 59.696, 58.500 63.133 C 38.468 66.339, 15 73.693, 15 76.765 C 15 77.671, 15.589 77.988, 16.569 77.612 C 21.277 75.805, 39.438 73.016, 53 72.017 C 61.525 71.389, 91 70.469, 118.500 69.972 C 167.304 69.090, 192.228 67.948, 206.466 65.939 C 220.770 63.921, 232.701 61.788, 240 59.942 C 274.513 51.217, 312.062 44.580, 347.500 40.942 C 353.550 40.321, 358.927 39.405, 359.450 38.907 C 359.972 38.408, 360.197 37.955, 359.950 37.901 C 359.702 37.847, 355.900 37.215, 351.500 36.496 C 330.516 33.071, 294.465 26.784, 294.172 26.498 C 293.992 26.322, 295.507 24.338, 297.539 22.089 L 301.233 18 296.366 18.116 C 293.690 18.180, 290.600 18.428, 289.500 18.668 M 329.250 62.689 C 330.212 62.941, 331.788 62.941, 332.750 62.689 C 333.712 62.438, 332.925 62.232, 331 62.232 C 329.075 62.232, 328.288 62.438, 329.250 62.689 M 388.269 62.693 C 389.242 62.947, 390.592 62.930, 391.269 62.656 C 391.946 62.382, 391.150 62.175, 389.500 62.195 C 387.850 62.215, 387.296 62.439, 388.269 62.693 M 317.250 63.689 C 318.212 63.941, 319.788 63.941, 320.750 63.689 C 321.712 63.438, 320.925 63.232, 319 63.232 C 317.075 63.232, 316.288 63.438, 317.250 63.689 M 265.170 76.674 C 261.293 77.483, 255.507 84.129, 253.945 89.570 C 251.899 96.694, 252.415 107.768, 255.080 113.965 C 260.934 127.572, 276.051 129.660, 282.150 117.705 C 283.882 114.312, 283.997 113.363, 282.924 111.358 C 281.217 108.168, 280.283 108.387, 278.619 112.369 C 276.835 116.638, 273.485 119, 269.212 119 C 263.781 119, 262.261 117.576, 260.950 111.258 C 258.743 100.628, 261.853 85.755, 266.840 83.086 C 272.100 80.271, 276.631 82.223, 280.203 88.843 C 282.700 93.469, 284.327 92.927, 283.484 87.750 C 282.407 81.129, 280.146 77.022, 277.645 77.145 C 276.465 77.203, 273.700 77.012, 271.500 76.719 C 269.300 76.427, 266.451 76.407, 265.170 76.674 M 364.250 91.732 C 361.913 91.943, 360 92.344, 360 92.623 C 360 94.643, 362.459 97, 364.568 97 L 367.066 97 366.783 108.250 L 366.500 119.500 362.750 119.810 C 358.629 120.151, 358.535 120.264, 360.035 123.066 C 360.952 124.779, 362.207 125, 371.035 125 C 376.516 125, 380.986 124.662, 380.968 124.250 C 380.885 122.292, 378.012 120, 375.640 120 C 373.064 120, 373 119.846, 373 113.650 C 373 108.208, 373.421 106.719, 375.945 103.235 C 379.628 98.151, 382.616 97.007, 384.646 99.904 C 386.388 102.393, 389.534 102.656, 390.405 100.387 C 390.745 99.500, 390.082 97.250, 388.930 95.387 C 387.139 92.489, 386.283 92, 382.995 92 C 380.392 92, 378.228 92.779, 376.283 94.415 L 373.413 96.830 372.123 93.915 C 371.413 92.312, 370.308 91.079, 369.666 91.175 C 369.025 91.271, 366.587 91.522, 364.250 91.732 M 311.250 93.989 C 307.855 96.059, 307.165 98.572, 309.035 102.066 C 309.629 103.175, 311.122 104, 312.535 104 C 314.488 104, 315 103.488, 315 101.535 C 315 98.553, 317.568 97, 322.501 97 C 325.848 97, 326.108 97.209, 325.816 99.668 C 325.531 102.073, 324.892 102.460, 319.338 103.587 C 311.951 105.087, 308.617 107.096, 306.988 111.029 C 305.388 114.892, 306.315 118.161, 310.077 121.923 C 312.671 124.518, 313.918 125, 318.030 125 C 320.712 125, 324.064 124.472, 325.480 123.827 C 327.449 122.930, 328.330 122.930, 329.227 123.827 C 329.872 124.472, 331.670 125, 333.221 125 C 337.008 125, 338.948 121.140, 336.995 117.491 C 335.341 114.401, 334.270 114.322, 333.706 117.250 C 333.467 118.487, 333.211 115.278, 333.136 110.118 C 332.993 100.226, 331.203 95.249, 326.976 92.987 C 323.740 91.255, 314.800 91.825, 311.250 93.989 M 319.243 109.976 C 314.521 112.119, 312.093 116.202, 314.101 118.622 C 315.579 120.402, 317.063 120.359, 321.980 118.391 C 325.819 116.855, 326 116.585, 326 112.391 C 326 107.364, 325.439 107.164, 319.243 109.976 M 39 132 C 39 132.663, 98 133, 214 133 C 330 133, 389 132.663, 389 132 C 389 131.337, 330 131, 214 131 C 98 131, 39 131.337, 39 132" stroke="none" fill="#1e64eb" fill-rule="evenodd"/></svg>